<?xml version="1.0" encoding="UTF-8" standalone="no"?>
<!-- Created with Inkscape (http://www.inkscape.org/) then cleaned up manually-->

<svg
   xmlns:svg="http://www.w3.org/2000/svg"
   xmlns="http://www.w3.org/2000/svg"
   width="900" height="600" viewBox="0 0 900 600" 
   version="1.1">

  <pattern id="pattern" patternUnits="userSpaceOnUse" width="128.57142" height="120">
    <circle cx="0" cy="0" r="999" fill="white"/>
    <path d="M 0,0 l32.142855,32.142855 v55.71429 l32.142855,32.142855 l32.142855,-32.142855 v-55.71429 l32.142855,-32.142855 z" fill="#0b5cb7"/>
  </pattern>

  <rect y="0" x="0" height="600" width="900" fill="url(#pattern)"/>

  <g
     transform="translate(0,-138.24998)"
     style="display:inline;opacity:1">
    <path
       style="fill:#e6a608;stroke:#000000;stroke-width:2.4;stroke-linecap:butt;stroke-linejoin:miter"
       d="m 366.50246,331.59973 c -23.35545,7.24339 -38.41888,-14.99594 -56.40394,-26.84729 -6.66633,15.74717 -2.41654,33.00002 0,50 23.91743,17.79674 37.5707,20.83875 51.23153,23.89163 50.2506,-12.49796 64.65339,-60.18738 5.17241,-47.04434 z"/>
    <g>
      <rect
         y="212.39343"
         x="298.29617"
         height="241.86086"
         width="16.245094"
         style="opacity:1;fill:#e6a708;stroke:#000000;stroke-width:1.5;stroke-linecap:butt;stroke-linejoin:round;paint-order:normal" />
      <path
         d="m 234.42506,195.38007 c -6.82377,20.01134 -9.28379,61.94408 3.45428,88.82376 0,0 39.10695,-28.03948 60.11566,-30.82707 11.10737,-1.4738 33.6137,0.17416 33.6137,0.17416 v -21.07387 c 0,0 -22.2944,-1.84133 -33.43953,-2.78663 -24.08712,-2.043 -63.92165,-33.54104 -63.74411,-34.31035 z"
         style="fill:#e8e7e7;stroke:#000000;stroke-width:1.5;stroke-linecap:round;stroke-linejoin:round" />
      <rect
         style="opacity:1;fill:#bc3805;stroke:none"
         width="7.3427625"
         height="240.31525"
         x="306.42715"
         y="213.1227" />
      <path
         style="fill:#bfbebe;stroke:none"
         d="m 247.66154,205.30743 c -4.41535,15.18426 -5.63659,42.13103 5.16092,68.80155 0,0 25.38298,-17.77046 46.39169,-20.55805 11.10737,-1.4738 33.6137,0.17416 33.6137,0.17416 v -21.07388 c 0,0 -22.2944,-1.84133 -33.43953,-2.78662 -24.08712,-2.04301 -51.90432,-23.78785 -51.72678,-24.55716 z"/>
      <path
         style="fill:none;stroke:#000000;stroke-width:1.5;stroke-linecap:round;stroke-linejoin:round"
         d="m 234.42506,195.38007 c -6.82377,20.01134 -9.28379,61.94408 3.45428,88.82376 0,0 39.10695,-28.03948 60.11566,-30.82707 11.10737,-1.4738 33.6137,0.17416 33.6137,0.17416 v -21.07387 c 0,0 -22.2944,-1.84133 -33.43953,-2.78663 -24.08712,-2.043 -63.92165,-33.54104 -63.74411,-34.31035 z"/>
    </g>
    <path
       style="fill:#e6a608;stroke:#000000;stroke-width:2.4;stroke-linecap:round;stroke-linejoin:round"
       d="m 467.48769,357.88177 c -24.98598,-8.51336 -31.50135,-7.05458 -46.64144,8.78697 -24.63291,25.77417 10.21068,55.49841 -7.29945,61.90269 -29.88262,10.92948 -3.10856,-52.06901 -61.08375,-34.25123 -6.21239,1.90928 -8.10099,12.05611 -6.65024,16.27093 -18.87337,9.85194 -12.27665,35.43189 -5.17242,36.4532 2.88014,0.41405 13.14579,1.63254 18.7226,-0.254 -2.01038,11.11664 -4.67779,30.35067 22.90822,23.79047 11.9951,-2.85254 26.98693,0.5647 36.2017,8.48324 10.29806,-4.71098 19.64139,-13.3376 17.95074,-22.42857 19.31606,2.38653 9.0394,-7.24965 23.67487,-18.21182 z"
       transform="translate(0,138.24998)"/>
    <path
       style="fill:#e6a608;stroke:#000000;stroke-width:2.4;stroke-linecap:round;stroke-linejoin:round"
       d="m 413.81422,409.07958 c 13.83213,39.03538 65.31601,30.55672 69.66569,74.89062 -27.27653,16.01046 -46.67439,40.52291 -45.97936,63.39578 0.79287,26.09272 54.46585,44.17106 55.0359,75.23895 0.29993,16.34627 -5.53278,25.12906 -16.37144,25.42798 -12.84136,0.35415 -14.69596,-18.3979 -33.43953,-19.15807 -9.49404,-0.38504 -16.1402,14.56773 -15.32645,24.03467 -9.91121,13.56992 -5.56328,22.59648 4.87659,29.25959 4.35243,16.58526 17.93058,17.48156 32.04622,18.80973 14.03983,1.32104 18.3466,-14.65968 38.66446,-10.10152 11.68882,2.6223 17.09415,-10.10964 16.71977,-29.25959 3.36896,-2.32933 5.49799,0.30105 8.01155,1.39331 3.7724,-8.8544 -6.40411,-12.81155 -2.08997,-16.37144 3.74874,-5.42431 6.14308,-2.72229 9.05654,-3.13495 1.96109,-3.53577 -2.55652,-5.92163 -0.94035,-8.57978 3.36063,-0.31102 3.8744,2.09301 5.41872,4.18719 7.06409,-7.20287 1.30068,-17.98826 3.44828,-22.41379 2.4773,-3.2732 3.81499,-0.84835 5.41872,0.2463 1.45659,-5.60917 -3.98871,-15.36148 -21.05912,-33.12808 -9.27956,-9.65801 -13.79547,-14.00905 -14.90147,-21.18226 -1.03454,-6.70975 2.90204,-14.65518 6.40394,-14.65518 15.64423,0 17.66247,46.58645 52.95566,46.92119 37.87124,0.35919 45.90194,-38.78872 44.95074,-64.65518 -2.31685,-63.00334 -21.38756,-96.21261 24.54506,-185.60623 9.43177,-18.35602 23.34151,-46.25217 22.64135,-71.40734 -0.70943,-25.48815 -17.17491,-55.79603 -54.33924,-56.42921 -32.7904,-0.55866 -42.36614,32.77016 -41.79941,41.45109 0.92349,14.14567 -5.92081,29.16076 -15.67478,29.60792 -1.68388,0.0772 -3.00222,-1.44321 -3.83162,-4.17995 -3.29857,2.42006 -7.31171,20.24925 18.46141,18.11308 3.29361,28.98373 -10.20047,23.2329 -16.67478,21.64135 0,0 5.43953,13.82854 17.71977,14.23649 11.61905,0.38599 20.77317,-5.95275 26.82129,-21.30781 3.4266,-8.69951 16.08497,-14.46248 16.02311,-25.01988 -0.14513,-24.76833 -18.63442,-26.57995 -18.46141,-32.39455 0.31196,-10.48441 10.73399,-18.4614 21.24804,-18.4614 23.73024,0 27.16962,25.29568 27.16962,46.32768 0,39.06537 -26.97582,25.82037 -45.331,64.88749 -3.70485,1.15963 -8.33118,7.33451 -8.10744,9.91134 -8.04633,1.46478 -11.76979,14.1071 -10.654,20.9915 -4.07598,3.4908 -6.60717,8.10846 -8.70821,12.53982 -40.0238,26.27064 24.02221,73.73145 27.51795,139.33139 1.25038,23.46423 -11.37219,38.09974 -25.77631,35.5295 -33.209,-5.92573 -26.49475,-50.81889 -28.73742,-95.09367 -2.90969,-57.4431 -78.62388,-126.32807 -45.40703,-125.71157"/>
    <path
       style="fill:#e6a608;stroke:#000000;stroke-width:2.4;stroke-linecap:butt;stroke-linejoin:miter"
       d="m 360.69412,374.4209 c -35.94154,30.79456 -39.03791,-16.56554 -62.17663,-16.37144 -20.76183,0.17416 -16.52377,20.97523 -14.80396,35.5295 4.16929,35.28349 21.34721,44.8109 43.88939,36.22617 12.94058,11.09895 25.66577,9.27492 38.14197,-7.48907 12.97012,-0.27602 24.24175,-0.84743 26.64712,-2.96079 0.58344,2.32219 0.34097,4.64438 -1.39331,6.96657 9.44913,-14.67072 34.81968,-4.74408 39.36112,-32.74288 19.07283,-35.08602 26.51508,-62.27985 -69.6657,-19.15806 z"/>
    <path
       style="fill:#e6a608;stroke:#000000;stroke-width:2.4;stroke-linecap:butt;stroke-linejoin:round"
       d="m 461.13861,198.89354 c 4.61504,-8.51783 8.72852,-25.47618 6.18812,-31.31188 10.5183,0.12661 10.21426,8.56547 6.06436,10.89109 8.81623,0.51696 7.71547,4.79288 10.76732,6.79703 -3.50454,-0.0336 -4.99848,4.2467 -12.24257,2.59901 3.26913,4.37309 1.40684,12.10698 17.68812,9.04455 8.04691,12.57304 14.45654,12.59363 20.54456,10.14852 -7.03784,-2.1216 -4.20796,-8.01698 -7.05446,-10.64357 3.67678,1.53498 7.95686,-1.98863 12.12871,3.46535 4.20792,-11.14479 7.67327,-5.68368 12.25248,-8.04455 -2.9736,3.92449 4.7797,8.19954 -7.67327,12.12871 9.08506,3.75536 3.90266,7.42896 7.17822,10.77723 -4.11517,-2.31041 -5.25101,4.59303 -13.36634,-5.20792 2.68545,8.51498 4.54327,16.8422 18.07921,17.69801 -0.11368,12.17752 7.28411,13.05397 12.5,15.59407 -3.47495,-4.71819 0.52611,-8.09346 -0.24752,-11.51981 2.48786,2.07263 5.83882,-0.007 9.39604,6.44555 6.7087,-6.86931 8.52569,-0.56866 11.13861,3.58911 -7.79415,0.37118 -19.80304,8.13 -27.59901,15.4703 z"/>
    <path
       style="fill:#e6a608;stroke:#bc3805;stroke-width:2.4;stroke-linecap:butt;stroke-linejoin:miter"
       d="m 455.91133,257.33865 c -26.14695,-0.65089 -37.74117,6.89412 -56.28079,4.92611 -16.4374,-1.74485 -15.87699,-15.64304 -13.91625,-16.87192 3.21098,-2.01246 4.16196,9.99301 18.2266,8.25123 40.09948,-4.96596 38.69338,2.03912 51.97044,3.69458 z"/>
    <path
       style="fill:#e6a608;stroke:#000000;stroke-width:2.4;stroke-linecap:butt;stroke-linejoin:miter"
       d="m 363.35487,191.689 c 44.62339,-12.78792 38.05181,-31.18379 87.16316,-41.50693 8.01029,-1.68375 15.00929,-21.2255 -12.25185,-14.00211 -31.15008,8.25384 -29.62901,-0.91774 -28.05438,-7.00106 13.77895,-2.24295 22.86325,-6.36375 33.65523,-9.80148 -12.65345,-5.38151 -25.09849,-8.01564 -31.52319,-10.80462 -11.21021,-4.86638 -7.96505,-14.424422 -9.08294,-24.550719 26.09158,-10.631452 40.14231,-21.598297 57.87771,-23.378517 31.38195,14.633084 58.18504,32.754825 75.74258,57.920796 -6.01687,19.5162 -4.37254,42.68775 6.93069,51.73267 -6.55809,4.23808 -8.88739,2.83776 -11.62376,1.9802 -2.50963,17.2584 -3.81752,31.78305 2.46535,47.0297 -2.13195,2.81855 -5.31418,4.58681 -11.38614,3.46535 -4.67782,8.32892 -8.38774,18.69345 11.88119,26.98019 -6.60636,14.43949 -31.85946,19.04436 -39.60397,-5.69306 -6.41049,11.24332 -23.51545,15.20169 -28.45544,-0.75248 -9.3607,15.88099 -40.93752,24.55479 -50.0099,5.20792 11.41979,-0.76423 18.49333,-2.51056 10.39604,-28.46535 -21.57335,17.16971 -29.79666,10.07493 -51.23763,21.53466 1.17659,-20.38466 9.63583,-32.74637 22.02971,-41.83168 -10.78947,0.39741 -24.11724,5.54248 -34.91246,-8.06348 z"
       transform="translate(0,138.24998)" />
    <path
       style="fill:#e27007;stroke:none"
       d="m 468.32762,309.45764 c 7.00991,-0.18152 12.31337,-0.0922 21.07387,-0.52249 4.82955,-0.23721 9.63642,-6.84245 14.97813,-16.5456 -2.94909,9.11084 -7.50127,16.08425 -13.93314,20.55138 0.069,-1.43672 -9.75197,-2.50715 -22.11886,-3.48329 z" />
    <path
       style="fill:#e6a608;stroke:#000000;stroke-width:2.4;stroke-linecap:butt;stroke-linejoin:miter"
       d="m 318.84237,308.44702 c 7.39722,-14.58043 -24.42184,-27.68934 -31.15764,-2.09359 -3.76876,14.32112 20.82275,22.46438 31.15764,2.09359 z"/>
    <path
       d="m 310.9606,335.91007 c 7.39722,-14.58043 -23.42704,-30.97372 -28.69459,-7.14285 -3.78397,17.11905 18.3597,27.51364 28.69459,7.14285 z"
       style="fill:#e6a608;stroke:#000000;stroke-width:2.4;stroke-linecap:butt;stroke-linejoin:miter" />
    <path
       style="fill:#e6a608;stroke:#bc3805;stroke-width:2.4;stroke-linecap:butt;stroke-linejoin:miter"
       d="m 324.7537,335.17116 c -8.73168,14.20991 -41.63546,6.25116 -36.08374,-6.28079 2.80765,-6.33774 7.90277,-4.48553 15.03149,-0.0138 5.22243,3.27595 8.89064,9.06746 21.05225,6.29459 z" />
    <path
       style="fill:#e6a608;stroke:#bc3805;stroke-width:2.4;stroke-linecap:butt;stroke-linejoin:miter"
       d="m 325.61576,324.82634 c 1.43216,-18.23143 -15.88003,-34.62435 -25.86206,-25.61577 -5.31909,4.80037 -0.68006,10.67068 6.83663,12.70527 11.20824,3.03382 15.65572,7.02769 19.02543,12.9105 z"/>
    <path
       style="fill:#e6a608;stroke:#bc3805;stroke-width:2.4;stroke-linecap:butt;stroke-linejoin:miter"
       d="m 259.67887,385.56741 c 7.35941,-7.72251 9.94168,-7.15982 15.50062,-7.14073 4.03834,0.0139 18.1229,5.91038 15.84894,-5.05077 -2.7657,-13.33149 -33.38505,-4.50464 -31.34956,12.1915 z"/>
    <path
       d="m 269.08374,416.56865 c 4.39861,-9.63832 6.93991,-10.4431 11.84317,-13.06232 4.2125,-2.25023 16.38177,-0.51109 13.93313,-9.7532 -3.65084,-13.77966 -33.93346,5.05754 -25.7763,22.81552 z"
       style="fill:#e6a608;stroke:#bc3805;stroke-width:2.4;stroke-linecap:butt;stroke-linejoin:miter" />
    <path
       style="fill:#e6a608;stroke:#bc3805;stroke-width:2.4;stroke-linecap:butt;stroke-linejoin:miter"
       d="m 282.74708,441.89938 c 3.1293,-10.12188 6.40882,-12.59987 10.0746,-14.47023 4.25411,-2.17054 16.18174,-2.60283 12.57076,-11.4557 -5.38386,-13.19931 -33.0075,9.35755 -22.64536,25.92593 z"/>
    <path
       style="fill:#e27007;stroke:none"
       d="m 404.967,226.90379 c 7.71273,-1.38433 21.13286,-7.51096 30.53067,-12.01733 19.43578,-9.31971 24.71825,5.97058 41.10275,7.83739 -1.38945,3.67551 -1.3567,6.87696 -1.39331,10.10153 -5.36088,-9.15792 -16.16814,-6.50168 -26.75858,-7.69583 -7.4269,-0.83744 -8.03604,-6.88059 -17.21789,-4.844 -10.00192,2.21849 -26.24513,11.3459 -26.21172,10.7111 z"/>
    <path
       style="fill:#ffffff;stroke:#000000;stroke-width:2.5;stroke-linecap:butt;stroke-linejoin:round"
       d="m 446.64417,221.19847 c 1.92173,-4.01253 6.00125,-4.56949 9.5427,-3.11775 3.18747,1.30664 5.49879,5.71122 9.17996,8.86517 -13.71911,3.50497 -12.29042,-2.31685 -18.72266,-5.74742 z"/>
    <path
       style="fill:#000000;stroke:#000000;stroke-width:1.5;stroke-linecap:butt;stroke-linejoin:miter"
       d="m 450.9112,224.55258 c 1.28733,-2.29091 2.97083,-4.49379 2.26413,-7.22782 l 3.00289,0.26125 c -0.63171,4.06158 -3.51669,5.36595 -5.26702,6.96657 z"/>
    <path
       d="m 347.10621,617.98555 c 4.71164,-9.48923 8.63259,-11.5651 12.26425,-12.6678 4.56983,-1.38756 16.38972,0.0252 14.24481,-9.29207 -3.198,-13.89174 -34.08078,3.94449 -26.50906,21.95987 z"
       style="fill:#e6a608;stroke:#bc3805;stroke-width:2.4;stroke-linecap:butt;stroke-linejoin:miter" />
    <path
       d="m 330.69018,541.12164 c 9.12103,-5.53216 11.46668,-4.31452 16.82766,-2.84411 3.89452,1.06823 15.94999,10.43887 16.618,-0.73572 0.81247,-13.59108 -31.04949,-13.06837 -33.44566,3.57983 z"
       style="fill:#e6a608;stroke:#bc3805;stroke-width:2.4;stroke-linecap:butt;stroke-linejoin:miter" />
    <path
       style="fill:#e6a608;stroke:#bc3805;stroke-width:2.4;stroke-linecap:butt;stroke-linejoin:miter"
       d="m 323.51261,585.99316 c 5.31564,-9.16455 7.92319,-9.71822 13.05806,-11.84786 4.41148,-1.82965 16.35376,1.08544 14.81609,-8.35109 -2.29261,-14.06953 -34.26456,1.73147 -27.87415,20.19895 z"/>
    <path
       style="fill:#e6a608;stroke:#bc3805;stroke-width:2.4;stroke-linecap:butt;stroke-linejoin:miter"
       d="m 413.61419,690.4635 c 9.54381,4.60009 13.91348,3.83255 17.45747,2.47424 4.45952,-1.70921 12.92433,-10.07894 16.94931,-1.40647 6.00109,12.93037 -29.32792,17.80258 -34.40678,-1.06777 z"/>
    <path
       style="fill:#e6a608;stroke:#bc3805;stroke-width:2.4;stroke-linecap:butt;stroke-linejoin:miter"
       d="m 406.60317,653.65475 c 6.48553,-8.46971 9.11336,-8.1882 14.64207,-8.7675 4.01638,-0.42077 18.65373,3.92557 15.21329,-6.72718 -4.18443,-12.95639 -33.67594,-0.88541 -29.85536,15.49468 z"/>
    <path
       d="m 412.51053,682.48014 c 5.31564,-9.16455 7.92319,-9.71822 13.05806,-11.84786 4.41148,-1.82965 16.35376,1.08544 14.81609,-8.35109 -2.29261,-14.06953 -34.26456,1.73147 -27.87415,20.19895 z"
       style="fill:#e6a608;stroke:#bc3805;stroke-width:2.4;stroke-linecap:butt;stroke-linejoin:miter" />
    <path
       d="m 480.42358,705.45752 c 9.72118,-3.27789 12.22625,-6.76792 13.75976,-10.10783 1.92966,-4.20272 2.12198,-15.728 10.78034,-12.45008 12.90932,4.88731 -8.24718,32.18144 -24.5401,22.55791 z"
       style="fill:#e6a608;stroke:#bc3805;stroke-width:2.4;stroke-linecap:butt;stroke-linejoin:miter" />
    <path
       style="fill:#e27007;stroke:none"
       d="m 429.66316,237.87614 c 2.70392,-8.97625 13.07162,-4.41315 22.46719,-1.56748 4.07966,3.97602 -0.66067,4.54728 2.61246,11.49484 8.79161,3.1803 8.37546,-4.398 18.11308,-0.17416 -10.84381,0.6998 -12.76503,4.99741 -9.2307,11.49484 -8.06961,3.85777 -16.13922,6.53069 -24.20883,8.53405 5.68936,-3.28639 12.39353,-3.11666 17.06809,-10.27569 1.51083,-2.31382 0.21772,-5.48935 -6.7924,-8.01156 1.45455,-3.09847 -1.97542,-10.63549 -20.02889,-11.49484 z"/>
    <path
       style="fill:#e6a608;stroke:#000000;stroke-width:2.4;stroke-linecap:round;stroke-linejoin:round"
       d="m 510.91077,232.47705 c 6.9492,1.38932 14.21911,1.15092 17.41643,5.05076 -0.31123,7.32297 -3.12867,8.3952 -7.66323,13.93314"/>
    <path
       style="fill:#e27007;stroke:none"
       d="m 514.48114,243.79773 c 6.3554,-5.1162 8.50376,-7.60688 12.59786,-5.98226 0.29583,5.9176 -3.40568,8.492 -7.246,12.78341 -4.63668,-1.28593 -5.769,-3.86294 -5.35186,-6.80115 z"/>
    <path
       style="fill:none;stroke:#000000;stroke-width:2.4;stroke-linecap:butt;stroke-linejoin:miter"
       d="m 513.34907,244.4073 c 4.83155,-1.65723 7.71329,-9.72066 14.80396,-7.05365"/>
    <path
       style="fill:#e27007;stroke:none"
       d="m 539.64787,309.39598 c -4.41717,-0.60563 -8.80213,-1.24979 -15.93602,-15.43896 -6.43128,26.05768 -16.21401,24.04689 -26.2988,19.5064 7.76179,10.27246 17.028,8.45066 28.04044,-6.34744 9.2388,3.30923 11.20685,3.96253 14.19438,2.28 z"/>
    <path
       style="fill:#e27007;stroke:none"
       d="m 384.99004,374.4209 c 31.96483,-14.52167 37.28183,-28.42348 48.15641,-33.43953 -6.22603,8.01792 -1.75622,10.48092 -5.22494,15.41352 -14.15082,12.36179 -24.68936,12.69457 -42.93147,18.02601 z"/>
    <path
       d="m 421.91286,391.54998 c 42.0852,4.64069 42.43722,-22.87837 48.80808,-35.76465 -1.0011,9.23707 1.27166,14.53169 -3.4162,22.94757 -12.68581,22.41988 -39.02402,19.92788 -45.39188,12.81708 z"
       style="fill:#e27007;stroke:none" />
    <path
       style="fill:#e27007;stroke:none"
       d="m 495.158,371.54719 c 6.32711,12.85922 14.60708,23.56097 36.91373,19.07098 -11.18706,15.31823 -36.74687,8.74682 -36.91373,-19.07098 z"/>
    <path
       style="fill:#e27007;stroke:none"
       d="m 533.02963,357.3528 c -4.38142,5.41807 -17.73075,4.70452 -24.99257,-16.5456 7.14041,7.59106 12.48489,15.66363 24.99257,16.5456 z"/>
    <path
       style="fill:#e27007;stroke:none"
       d="m 354.92611,410.66377 c 24.74281,-8.66071 53.0991,-5.35032 61.2069,-22.04433 -2.86596,2.15779 -25.16433,-0.67871 -61.2069,22.04433 z"/>
    <path
       d="m 285.59114,385.78692 c 13.41276,-9.02144 22.43407,-10.2589 33.867,-3.69458 -9.21339,-11.77447 -20.21327,-13.21853 -33.867,3.69458 z"
       style="fill:#e27007;stroke:none" />
    <path
       style="fill:#e27007;stroke:none"
       d="m 292.734,406.84604 c 3.90831,-9.9487 19.14171,-10.58011 33.867,-3.69458 -16.29067,-11.34117 -29.18084,-12.6695 -33.867,3.69458 z"/>
    <path
       d="m 472.90641,571.99382 c -13.02428,-30.47855 2.79049,-54.30321 25.7678,-69.81348 6.4627,-4.36249 7.18701,-12.27046 11.30117,-18.2407 -10.79351,3.94568 -90.0424,54.6161 -37.06897,88.05418 z"
       style="fill:#e27007;stroke:none" />
    <path
       style="fill:#e27007;stroke:none"
       d="m 515.08404,548.42007 c 5.91772,-5.10353 11.41966,3.50893 12.13197,2.77256 0.71528,-7.32328 -4.95347,-16.2358 -3.8001,-22.3802 -3.74411,4.94182 -6.00007,8.08612 -8.33187,19.60764 z"/>
    <path
       style="fill:#e27007;stroke:none"
       d="m 351.8473,549.33372 c 18.39452,-2.67315 30.2955,7.98804 44.45813,20.93596 -9.21339,-11.77447 -21.6911,-34.40079 -44.45813,-20.93596 z"/>
    <path
       d="m 360.9606,583.44702 c 15.78486,-2.93724 16.18356,-0.69969 23.76848,1.97045 -16.2445,-8.80156 -18.91185,-8.9586 -23.76848,-1.97045 z"
       style="fill:#e27007;stroke:none" />
    <path
       style="fill:#e27007;stroke:none"
       d="m 430.66995,651.90987 c 20.37933,-12.85305 23.47905,2.97758 36.74071,5.36196 -10.69379,-9.07493 -20.38744,-23.84255 -36.74071,-5.36196 z"/>
    <path
       d="m 433.63286,679.59012 c 4.25664,-7.77165 18.53214,-9.79637 33.34451,-5.26206 -16.29067,-8.64162 -27.61336,-8.14123 -33.34451,5.26206 z"
       style="fill:#e27007;stroke:none" />
    <path
       style="fill:#e27007;stroke:none"
       d="m 480.15027,693.9958 c 7.40761,-4.61004 11.66232,-4.86265 14.62538,-5.19198 0.77099,-2.46818 -1.96621,-5.81792 -1.68814,-9.39361 -2.77013,8.21661 -6.6646,7.12082 -12.93724,14.58559 z"/>
    <path
       d="m 598.34587,402.30694 c -5.7293,-12.65179 -11.90761,-31.26025 -10.48774,-39.99811 0.38839,-5.31477 6.53419,-9.53782 7.65709,-9.63085 -2.83481,6.77618 1.30527,30.91055 2.83065,49.62896 z"
       style="fill:#e27007;stroke:none" />
    <path
       style="fill:#e27007;stroke:none"
       d="m 583.74189,432.64354 c -7.07604,-12.65179 -14.92323,-28.07609 -15.19584,-36.81395 2.01861,-5.76299 6.56978,-11.00421 8.40023,-12.22587 -0.4733,5.22105 0.34487,21.58953 6.79561,49.03982 z"/>
    <g
       transform="translate(220.49192,-163.01772)">
      <path
         style="fill:#e27007;stroke:none"
         d="m 370.19705,419.90022 c 3.46055,-14.42543 17.86718,-20.30884 29.98733,-16.64152 10.60943,3.21021 15.50321,10.56577 18.8737,24.64645 5.06032,-33.69336 -46.32449,-45.91708 -48.86103,-8.00493 z"/>
    </g>
    <path
       d="m 448.20253,293.1625 c -10.18654,3.89905 -12.4913,8.34206 3.48825,8.6952 -20.34911,6.21577 -18.94547,-8.76014 -3.48825,-8.6952 z"
       style="fill:#e27007;stroke:none" />
    <path
       d="m 510.39531,233.61498 c -0.72842,4.12479 1.32004,7.5753 2.54712,9.64596 3.43944,-1.20506 6.5095,-6.56669 10.52457,-7.37819 -2.23437,-0.80829 -8.18615,-1.33793 -13.07169,-2.26777 z"
       style="fill:#e8bf24;stroke:none" />
    <path
       style="fill:#e8bf24;stroke:none"
       d="m 433.24055,210.79947 c 17.91258,-4.1219 38.07368,-0.87274 56.04649,6.75378 -8.00562,-4.64371 -24.29774,-15.90451 -28.90472,-15.90451 -7.40507,0 -18.90794,5.43431 -27.14177,9.15073 z"/>
    <path
       d="m 570.91351,245.8465 c 12.27624,-16.12702 31.10475,-27.99181 51.20304,-26.30152 -26.1487,-5.45903 -42.83608,5.43451 -51.20304,26.30152 z"
       style="fill:#e8bf24;stroke:none" />
    <path
       style="fill:#e8bf24;stroke:none"
       d="m 476.47783,304.13668 c 4.894,-4.92727 13.92046,-1.06365 13.17734,-18.71921 -5.1706,14.89407 -9.71302,13.59983 -13.17734,18.71921 z"/>
    <path
       d="m 499.99999,311.649 c 5.76663,-3.3641 9.55912,0.16491 11.33005,-13.5468 -2.70755,5.81534 -5.40268,8.57281 -11.33005,13.5468 z"
       style="fill:#e8bf24;stroke:none" />
    <path
       style="fill:#e8bf24;stroke:none"
       d="m 548.37427,287.67527 c 21.00823,17.36354 19.30785,-6.34158 18.06373,-13.30166 -1.52501,5.71057 -8.80036,18.28683 -18.06373,13.30166 z"/>
    <path
       style="fill:#e8bf24;stroke:none"
       d="m 413.171,522.32434 c 12.27624,-16.12702 30.86571,-27.79165 50.964,-26.10136 -23.04961,-9.1539 -32.49111,-1.24428 -42.40435,9.59064 -5.1959,5.67899 -7.17934,10.66135 -8.55965,16.51072 z"/>
    <path
       d="m 457.50598,506.43764 c 38.18439,-21.83826 47.10794,-34.84189 44.4213,-39.28895 -4.01189,-6.6407 -14.56515,7.43889 -16.08779,9.99137 -1.00651,1.68726 -1.40884,3.03979 -1.25449,7.49129 -1.15077,1.48405 -15.73087,8.00176 -27.07902,21.80629 z"
       style="fill:#e8bf24;stroke:none" />
    <path
       d="m 381.03038,326.14698 c 38.94711,-11.42914 46.87698,-31.33397 69.4468,-36.466 -30.68911,3.79963 -52.21614,29.00673 -69.4468,36.466 z"
       style="fill:#e8bf24;stroke:none" />
    <path
       style="fill:#e8bf24;stroke:none"
       d="m 595.43704,363.45836 c 12.06559,-26.20253 29.56445,-37.02686 37.30301,-49.18138 -15.72847,11.9259 -38.33457,25.57887 -37.30301,49.18138 z"/>
    <path
       d="m 594.51117,550.68522 c -3.49517,21.49082 -31.80409,30.86771 -47.65293,3.88218 18.66668,39.194 53.76165,24.65098 47.65293,-3.88218 z"
       style="fill:#e8bf24;stroke:none" />
    <path
       d="m 380.05418,608.09798 c 19.47693,-4.16489 25.07059,1.3959 35.63234,5.524 -7.61497,-10.1833 -19.27907,-24.00459 -35.63234,-5.524 z"
       style="fill:#e27007;stroke:none" />
  </g>
</svg>
