<svg xmlns="http://www.w3.org/2000/svg" width="1254" height="836" viewBox="0 0 1254 836">
<g>
<path d="M 511.00 836.00 L 511.00 511.00 L 811.63 511.00 L 813.43 516.75 C816.10,525.31 825.17,544.97 830.02,552.70 C855.50,593.33 890.36,618.00 939.50,630.19 C947.65,632.21 951.01,632.43 975.00,632.46 C999.18,632.50 1002.37,632.30 1011.50,630.20 C1070.84,616.53 1116.93,576.05 1136.12,520.75 L 1139.50 511.01 L 1254.00 511.00 L 1254.00 836.00 L 511.00 836.00 ZM 1254.00 325.00 L 1146.30 325.00 L 1146.40 294.75 C1146.49,266.01 1146.40,264.33 1144.46,261.00 C1142.24,257.20 1142.49,257.31 1100.00,240.56 C1075.25,230.80 1023.87,209.98 1001.00,200.44 C989.19,195.51 983.12,192.81 976.97,192.60 C970.00,192.35 962.93,195.30 947.28,201.81 C946.38,202.18 945.46,202.57 944.50,202.96 C930.75,208.67 894.53,223.33 864.00,235.52 C811.27,256.59 808.40,257.86 806.50,261.10 C804.64,264.26 804.48,266.63 804.17,294.75 L 803.85 325.00 L 511.00 325.00 L 511.00 0.00 L 1254.00 0.00 L 1254.00 325.00 ZM 325.00 511.00 L 325.00 836.00 L 0.00 836.00 L 0.00 511.00 ZM 0.00 0.00 L 325.00 0.00 L 325.00 325.00 L 0.00 325.00 ZM 990.27 613.02 C972.19,615.40 947.32,612.44 926.50,605.42 C870.47,586.53 829.34,533.82 825.22,475.61 C824.82,470.05 824.63,422.08 824.79,369.00 L 825.09 272.50 L 846.79 263.81 C858.73,259.04 892.57,245.41 921.99,233.53 L 975.48 211.93 L 1048.49 241.42 C1088.64,257.63 1122.74,271.36 1124.25,271.93 L 1127.00 272.95 L 1126.97 363.23 C1126.94,459.68 1126.35,478.76 1122.97,494.50 C1116.99,522.25 1103.21,547.66 1083.08,568.01 C1069.50,581.74 1058.70,589.61 1042.50,597.54 C1024.86,606.18 1011.02,610.29 990.27,613.02 ZM 910.48 404.98 C914.28,409.18 918.53,407.58 932.12,396.83 C933.98,395.35 938.17,392.54 941.44,390.58 L 947.38 387.00 L 965.94 386.99 C987.77,386.99 992.98,386.28 1003.58,381.86 C1018.84,375.51 1027.26,363.89 1031.02,344.00 C1035.10,322.39 1038.83,317.72 1057.00,311.47 L 1063.50 309.23 L 1060.50 308.04 C1058.85,307.39 1055.47,306.35 1053.00,305.74 C1050.53,305.12 1047.15,303.40 1045.50,301.91 C1037.39,294.62 1026.40,292.33 1016.82,295.95 C1010.10,298.48 1001.72,306.86 995.69,317.05 C993.59,320.60 991.36,324.26 990.73,325.19 C989.27,327.35 991.80,330.36 997.50,333.22 C1003.32,336.13 1007.00,339.93 1007.00,343.01 C1007.00,348.10 1003.82,355.00 999.38,359.57 C994.03,365.08 983.58,370.28 978.81,369.81 C975.68,369.50 975.94,369.28 983.50,365.69 C992.53,361.42 998.36,356.38 1001.10,350.50 C1004.59,342.99 1003.47,341.22 990.70,334.02 C987.49,332.21 983.02,328.48 980.70,325.69 C978.39,322.90 973.58,317.53 970.02,313.74 C957.98,300.97 940.01,294.46 904.26,289.95 C894.23,288.68 885.76,287.91 885.44,288.23 C884.34,289.33 887.94,294.80 892.14,298.39 C898.32,303.67 909.76,307.53 930.00,311.14 C936.68,312.33 937.06,312.51 933.53,312.81 C928.89,313.20 913.23,310.78 900.78,307.74 C895.98,306.57 891.74,305.93 891.35,306.31 C890.34,307.33 896.06,314.06 900.60,317.20 C906.61,321.36 916.86,324.77 930.28,327.08 C937.00,328.24 942.69,329.37 942.92,329.59 C943.96,330.61 925.51,329.84 916.58,328.49 C911.13,327.67 906.40,327.27 906.08,327.60 C904.81,328.89 916.16,337.92 921.64,339.97 C929.19,342.79 940.69,344.16 950.23,343.36 C955.10,342.95 958.00,343.08 958.00,343.70 C958.00,345.30 950.13,347.24 941.00,347.89 L 932.50 348.50 L 936.82 351.69 C945.25,357.92 957.44,359.86 971.25,357.18 C973.86,356.67 976.00,356.59 976.00,357.01 C976.00,357.42 973.64,358.79 970.75,360.07 C965.71,362.29 961.06,362.65 947.75,361.85 C946.51,361.78 941.63,363.35 936.89,365.35 C932.15,367.36 920.01,371.16 909.89,373.81 C896.03,377.45 891.42,379.04 891.18,380.29 C890.74,382.57 895.39,387.00 898.22,387.00 C899.49,387.00 905.89,385.42 912.43,383.50 C918.98,381.57 924.52,380.19 924.76,380.43 C925.48,381.15 908.72,388.83 904.94,389.51 C899.19,390.55 898.37,391.39 900.30,394.34 C903.16,398.69 905.35,398.58 915.73,393.57 C925.97,388.62 926.19,389.48 916.55,396.76 C913.22,399.27 910.08,401.69 909.57,402.14 C909.03,402.62 909.39,403.78 910.48,404.98 ZM 972.58 513.91 C975.68,517.26 978.56,520.00 978.97,520.00 C980.11,520.00 988.36,510.93 991.30,506.45 C996.14,499.05 999.00,488.26 999.00,477.32 L 999.00 467.50 L 1004.75 464.55 C1013.55,460.02 1025.18,447.94 1029.45,438.89 C1031.37,434.82 1033.22,429.66 1033.57,427.41 L 1034.20 423.32 L 1028.29 421.66 C1020.83,419.57 1008.61,419.53 1000.72,421.57 C995.03,423.05 986.93,426.75 980.83,430.66 C978.24,432.32 978.03,432.29 974.16,429.73 C968.75,426.15 959.07,422.31 951.86,420.89 C945.15,419.57 932.61,420.14 926.24,422.05 C921.19,423.56 921.05,424.43 924.45,433.45 C929.73,447.49 940.59,459.21 954.25,465.61 L 958.00 467.37 L 958.00 475.83 C958.00,490.55 962.97,503.53 972.58,513.91 ZM 970.89 601.71 C972.32,602.93 974.03,603.94 974.69,603.96 C975.34,603.98 980.76,600.01 986.73,595.14 L 997.58 586.27 L 1009.62 586.19 C1019.34,586.12 1022.76,585.69 1027.40,583.95 C1035.56,580.90 1048.42,572.07 1048.82,569.25 C1049.10,567.29 1048.70,567.00 1045.66,567.00 C1043.75,567.00 1039.11,568.38 1035.34,570.07 C1026.75,573.93 1020.75,574.70 1015.75,572.57 C1009.53,569.92 1010.93,568.36 1020.07,567.73 C1028.10,567.18 1032.00,565.46 1032.00,562.46 C1032.00,560.68 1023.89,558.89 1012.98,558.27 C1004.11,557.77 1003.12,557.91 998.48,560.34 C992.56,563.44 989.97,565.72 984.08,573.02 C981.64,576.03 976.28,581.96 972.17,586.18 L 964.68 593.86 L 966.48 596.68 C967.47,598.23 969.45,600.50 970.89,601.71 ZM 974.00 308.78 C974.00,311.24 975.30,306.71 976.98,298.43 C978.08,292.97 979.22,287.48 979.51,286.24 C980.04,283.99 980.11,284.01 987.36,287.99 C991.38,290.19 995.01,292.00 995.43,292.00 C995.84,292.00 994.31,288.58 992.01,284.41 C989.72,280.23 988.01,276.66 988.21,276.46 C988.40,276.27 993.72,275.12 1000.03,273.91 C1006.34,272.70 1011.84,271.42 1012.25,271.05 C1012.67,270.69 1007.49,269.35 1000.75,268.06 C994.01,266.78 988.34,265.59 988.14,265.42 C987.93,265.24 989.62,261.67 991.89,257.48 C994.15,253.28 996.00,249.62 996.00,249.35 C996.00,249.08 992.59,250.74 988.42,253.05 C984.25,255.35 980.50,256.84 980.09,256.37 C979.67,255.89 978.53,251.00 977.54,245.50 C976.56,240.00 975.39,234.83 974.95,234.01 C974.04,232.31 974.00,232.46 971.11,246.80 C970.08,251.91 968.99,256.34 968.68,256.65 C968.38,256.96 964.72,255.33 960.56,253.03 C956.40,250.74 953.00,249.14 953.00,249.48 C953.00,249.82 954.85,253.47 957.12,257.60 C959.38,261.72 961.07,265.24 960.87,265.41 C960.67,265.59 954.99,266.78 948.25,268.06 C941.51,269.35 936.33,270.69 936.75,271.05 C937.16,271.42 942.66,272.70 948.97,273.91 C955.28,275.12 960.60,276.27 960.79,276.46 C960.99,276.66 959.28,280.23 956.99,284.41 C954.69,288.58 953.16,292.00 953.57,292.00 C953.99,292.00 957.62,290.19 961.64,287.99 C968.89,284.01 968.96,283.99 969.49,286.24 C970.33,289.84 974.00,308.16 974.00,308.78 ZM 956.15 589.24 C957.99,590.71 960.00,591.93 960.61,591.95 C961.83,592.00 971.00,582.58 971.00,581.29 C970.99,580.86 967.88,576.87 964.08,572.43 C959.00,566.51 955.52,563.49 950.94,561.05 C944.80,557.78 944.55,557.73 935.10,558.30 C924.08,558.96 916.50,560.90 916.50,563.04 C916.50,565.55 923.00,568.00 929.69,568.00 C936.70,568.00 938.24,569.14 934.52,571.58 C929.55,574.83 924.15,574.56 914.23,570.54 C898.14,564.02 894.00,567.53 907.15,576.54 C918.97,584.64 924.01,586.17 939.65,586.39 C952.24,586.58 952.93,586.70 956.15,589.24 ZM 982.03 501.75 C979.05,506.59 978.33,506.25 973.73,497.89 C970.74,492.44 967.73,479.82 968.18,474.56 L 968.50 470.83 L 989.00 470.48 L 989.00 476.69 C989.00,483.42 985.44,496.21 982.03,501.75 ZM 1011.42 446.45 C1008.43,449.49 1003.75,453.11 1001.01,454.49 L 996.05 457.01 L 993.89 452.76 C992.70,450.41 990.42,446.59 988.82,444.26 L 985.91 440.01 L 990.61 437.03 C993.20,435.39 997.78,433.33 1000.80,432.46 C1008.28,430.28 1019.50,429.39 1020.43,430.89 C1021.65,432.86 1017.14,440.64 1011.42,446.45 ZM 963.52 451.75 C962.15,454.64 960.91,456.99 960.76,456.98 C958.05,456.75 950.44,451.63 945.56,446.74 C939.45,440.63 934.19,432.47 935.52,431.15 C935.88,430.79 939.39,430.57 943.34,430.65 C951.56,430.83 961.82,433.90 966.79,437.67 L 970.09 440.17 L 968.05 443.33 C966.93,445.08 964.89,448.86 963.52,451.75 ZM 1073.00 522.34 C1073.00,522.41 1072.99,522.47 1072.99,522.52 C1072.98,522.63 1072.97,522.72 1073.01,522.79 C1073.19,523.08 1074.35,522.80 1080.90,521.17 C1081.61,520.99 1082.38,520.80 1083.21,520.60 C1093.47,518.06 1096.83,516.24 1101.89,510.48 C1106.64,505.06 1111.78,494.00 1109.54,494.00 C1109.29,494.00 1107.38,495.17 1105.29,496.59 C1103.21,498.02 1098.80,500.56 1095.50,502.23 C1086.23,506.92 1081.73,510.37 1077.18,516.27 C1074.88,519.25 1073.00,521.98 1073.00,522.34 ZM 875.22 540.53 C880.09,542.05 895.00,542.47 895.00,541.09 C895.00,539.78 883.06,529.98 879.50,528.37 C877.85,527.63 872.22,526.16 867.00,525.11 C861.78,524.06 856.71,522.88 855.75,522.49 C852.41,521.14 853.93,524.50 858.75,529.14 C865.61,535.73 870.36,539.01 875.22,540.53 ZM 873.00 522.08 C873.83,522.55 875.06,522.95 875.75,522.97 C878.62,523.04 876.59,519.38 870.25,513.09 C865.39,508.27 860.93,505.08 854.29,501.67 C849.23,499.08 844.82,496.51 844.48,495.98 C843.53,494.43 841.00,494.84 841.00,496.54 C841.00,499.34 845.12,506.21 849.84,511.29 C854.86,516.69 859.88,519.39 867.00,520.51 C869.47,520.90 872.17,521.61 873.00,522.08 ZM 862.93 491.75 C865.38,497.31 866.98,498.47 867.03,494.75 C867.05,493.51 868.46,489.12 870.16,485.00 C872.68,478.86 873.33,475.68 873.73,467.46 C874.12,459.33 873.93,457.18 872.71,456.18 C871.46,455.14 870.60,455.64 867.50,459.22 C861.66,465.94 859.76,471.25 860.22,479.50 C860.47,483.90 861.47,488.45 862.93,491.75 ZM 1084.00 495.10 C1084.00,498.73 1085.87,496.97 1088.08,491.25 C1089.31,488.09 1090.52,482.67 1090.77,479.21 C1091.18,473.69 1090.87,472.17 1088.17,466.70 C1084.41,459.06 1079.38,453.79 1077.97,456.02 C1077.45,456.83 1077.02,461.45 1077.02,466.29 C1077.00,473.96 1077.44,476.23 1080.50,484.14 C1082.43,489.12 1084.00,494.06 1084.00,495.10 ZM 855.21 497.56 C864.34,503.23 864.84,502.34 858.90,490.93 C855.81,484.98 852.58,480.84 845.70,474.03 C840.69,469.06 835.95,465.00 835.17,465.00 C832.83,465.00 834.39,472.38 838.48,480.65 C842.26,488.30 845.38,491.45 855.21,497.56 ZM 1060.30 536.56 L 1054.50 542.14 L 1064.34 541.64 C1072.20,541.25 1075.22,540.64 1079.42,538.58 C1087.10,534.82 1101.82,519.94 1095.43,522.39 C1094.57,522.72 1089.34,523.91 1083.80,525.04 C1071.53,527.54 1067.78,529.38 1060.30,536.56 ZM 1088.00 499.40 C1088.00,500.28 1088.26,501.00 1088.58,501.00 C1090.51,501.00 1103.54,492.14 1106.78,488.62 C1113.60,481.23 1119.73,465.00 1115.71,465.00 C1114.86,465.00 1109.96,469.16 1104.82,474.25 C1098.04,480.95 1094.44,485.47 1091.73,490.65 C1089.68,494.58 1088.00,498.51 1088.00,499.40 ZM 1043.50 558.28 C1047.35,558.46 1052.49,558.70 1054.92,558.80 C1058.34,558.96 1060.82,558.19 1065.92,555.40 C1073.61,551.20 1076.00,549.25 1076.00,547.20 C1076.00,545.94 1074.02,545.79 1062.64,546.23 C1049.96,546.71 1048.96,546.90 1043.19,549.98 C1036.11,553.75 1032.95,556.68 1035.11,557.46 C1035.88,557.73 1039.65,558.10 1043.50,558.28 ZM 1092.49 467.95 C1093.37,471.95 1094.76,471.81 1096.55,467.53 C1099.57,460.31 1097.71,451.79 1091.38,443.91 C1089.80,441.94 1087.17,437.54 1085.55,434.13 C1083.55,429.93 1082.10,428.03 1081.05,428.25 C1079.79,428.51 1079.56,429.88 1079.81,435.53 C1080.24,445.48 1081.57,449.55 1087.01,457.70 C1089.65,461.66 1092.12,466.27 1092.49,467.95 ZM 1049.39 540.18 C1048.08,542.29 1051.17,540.60 1055.38,536.90 C1062.46,530.66 1064.93,525.71 1065.66,516.26 C1066.77,501.91 1064.19,497.05 1059.30,504.26 C1055.63,509.66 1054.19,514.14 1051.99,527.03 C1050.84,533.82 1049.66,539.74 1049.39,540.18 ZM 854.69 468.48 C856.58,472.44 857.01,472.23 858.93,466.50 C859.66,464.30 861.72,460.48 863.50,458.00 C869.25,450.01 870.27,447.10 870.79,437.26 C871.21,429.13 871.07,428.00 869.62,428.00 C868.58,428.00 867.06,430.07 865.50,433.60 C864.13,436.69 861.44,441.36 859.50,444.00 C852.85,453.06 851.24,461.24 854.69,468.48 ZM 885.13 555.59 C891.29,558.98 891.77,559.08 899.50,558.56 C903.90,558.26 909.41,558.01 911.75,558.01 C917.37,558.00 917.22,556.32 911.25,552.35 C903.84,547.43 903.33,547.30 888.75,546.55 C877.18,545.95 875.00,546.07 875.00,547.26 C875.00,549.27 877.76,551.54 885.13,555.59 ZM 893.65 534.92 C897.12,538.47 900.24,541.09 900.60,540.74 C901.20,540.14 900.57,535.98 897.41,519.72 C896.00,512.47 891.64,503.35 888.72,501.58 C885.98,499.92 885.03,502.42 885.02,511.31 C884.99,523.68 886.37,527.46 893.65,534.92 ZM 1099.48 467.75 C1099.11,470.16 1099.22,472.00 1099.75,472.00 C1101.47,472.00 1113.69,458.52 1115.91,454.18 C1117.12,451.81 1118.33,447.76 1118.61,445.18 C1119.18,439.75 1117.94,431.81 1116.44,431.31 C1115.87,431.12 1114.42,433.11 1113.20,435.73 C1111.99,438.36 1109.18,443.42 1106.97,447.00 C1102.96,453.48 1100.73,459.67 1099.48,467.75 ZM 843.32 464.75 C847.18,468.74 850.75,472.00 851.25,472.00 C851.75,472.00 851.87,470.54 851.51,468.75 C849.27,457.55 847.41,452.63 841.96,443.55 C838.68,438.07 836.00,432.97 836.00,432.21 C836.00,431.45 835.45,431.02 834.78,431.24 C831.52,432.33 831.35,447.90 834.54,454.09 C835.51,455.96 839.46,460.76 843.32,464.75 ZM 1028.17 546.75 C1024.79,555.05 1025.20,555.45 1032.97,551.51 C1038.57,548.68 1041.80,544.87 1045.53,536.71 C1048.61,529.98 1050.04,520.00 1047.93,520.00 C1046.11,520.00 1036.54,530.22 1033.53,535.37 C1032.20,537.64 1029.79,542.76 1028.17,546.75 ZM 876.28 515.70 L 880.50 520.28 L 881.18 515.89 C883.36,501.71 880.79,479.50 876.96,479.50 C873.68,479.50 869.55,501.08 871.41,508.49 C871.77,509.94 873.97,513.18 876.28,515.70 ZM 919.45 552.62 C922.18,553.88 924.60,554.74 924.82,554.52 C925.61,553.73 918.97,537.82 916.14,533.70 C911.89,527.53 902.96,519.44 902.04,520.93 C900.95,522.70 902.79,531.73 905.42,537.55 C908.58,544.52 913.58,549.90 919.45,552.62 ZM 1069.71 519.33 C1070.54,520.68 1076.10,514.83 1078.10,510.50 C1080.59,505.14 1080.43,496.40 1077.69,487.00 C1075.00,477.79 1073.27,477.29 1070.82,485.00 C1069.49,489.20 1069.09,493.80 1069.14,504.50 C1069.17,512.20 1069.43,518.87 1069.71,519.33 ZM 851.00 443.05 C851.00,444.67 851.43,446.00 851.95,446.00 C853.39,446.00 857.50,440.09 859.91,434.55 C862.06,429.62 864.34,417.28 863.57,414.80 C863.35,414.09 862.90,412.26 862.56,410.75 C861.60,406.33 858.28,407.11 855.98,412.30 C854.23,416.27 851.00,436.19 851.00,443.05 ZM 1095.83 443.21 C1098.21,446.04 1098.42,446.11 1099.11,444.24 C1100.23,441.20 1097.13,417.10 1094.99,412.25 C1091.03,403.29 1086.00,409.82 1087.51,421.94 C1088.37,428.78 1092.43,439.17 1095.83,443.21 ZM 845.24 440.75 C846.30,442.54 847.51,444.00 847.93,444.00 C848.35,444.00 848.49,440.72 848.23,436.72 C847.92,431.85 848.35,426.78 849.53,421.47 C851.88,410.83 851.94,407.64 849.80,407.21 C847.29,406.71 842.30,414.22 841.01,420.46 C839.60,427.26 840.88,433.39 845.24,440.75 ZM 1102.62 437.75 C1102.32,441.19 1102.47,444.00 1102.96,444.00 C1103.45,444.00 1105.23,441.23 1106.92,437.84 C1111.12,429.45 1111.23,420.79 1107.23,413.58 C1101.96,404.08 1097.80,404.72 1099.96,414.70 C1102.61,426.98 1103.16,431.71 1102.62,437.75 ZM 984.99 459.25 C985.00,459.66 981.84,460.00 977.98,460.00 L 970.97 460.00 L 973.41 455.19 C977.44,447.22 978.39,447.00 981.93,453.18 C983.61,456.11 984.99,458.84 984.99,459.25 ZM 1034.50 307.50 C1034.50,309.78 1034.00,310.57 1032.41,310.80 C1029.92,311.16 1027.70,308.80 1028.18,306.30 C1028.42,305.05 1029.43,304.50 1031.51,304.50 C1034.17,304.50 1034.50,304.84 1034.50,307.50 Z" fill="rgb(16,46,67)"/>
<path d="M 1006.00 622.09 C995.17,624.26 968.50,625.34 957.50,624.06 C888.11,615.96 831.90,565.03 817.13,496.88 C813.45,479.89 813.00,465.27 813.01,363.60 L 813.03 265.50 L 894.26 232.75 L 975.50 200.00 L 1055.73 232.43 C1099.85,250.26 1136.41,265.14 1136.98,265.49 C1138.26,266.28 1138.33,441.35 1137.05,467.50 C1135.71,495.18 1131.39,512.29 1119.91,535.50 C1097.70,580.38 1056.03,612.05 1006.00,622.09 ZM 990.27 613.02 C1011.02,610.29 1024.86,606.18 1042.50,597.54 C1058.70,589.61 1069.50,581.74 1083.08,568.01 C1103.21,547.66 1116.99,522.25 1122.97,494.50 C1126.35,478.76 1126.94,459.68 1126.97,363.23 L 1127.00 272.95 L 1124.25 271.93 C1122.74,271.36 1088.64,257.63 1048.49,241.42 L 975.48 211.93 L 921.99 233.53 C892.57,245.41 858.73,259.04 846.79,263.81 L 825.09 272.50 L 824.79 369.00 C824.63,422.08 824.82,470.05 825.22,475.61 C829.34,533.82 870.47,586.53 926.50,605.42 C947.32,612.44 972.19,615.40 990.27,613.02 ZM 325.00 0.00 L 371.00 0.00 L 371.00 371.00 L 0.00 371.00 L 0.00 325.00 L 325.00 325.00 ZM 325.00 511.00 L 0.00 511.00 L 0.00 465.00 L 371.00 465.00 L 371.00 836.00 L 325.00 836.00 ZM 511.00 836.00 L 465.00 836.00 L 465.00 465.00 L 804.70 465.00 L 805.35 474.96 C806.51,492.67 810.89,511.13 817.99,528.50 C816.00,523.90 814.34,519.68 813.43,516.75 L 811.63 511.00 L 511.00 511.00 ZM 805.95 262.14 C804.55,265.28 804.55,271.37 804.86,317.75 L 805.23 371.00 L 465.00 371.00 L 465.00 0.00 L 511.00 0.00 L 511.00 325.00 L 803.85 325.00 L 804.17 294.75 C804.44,269.70 804.60,265.08 805.95,262.14 ZM 910.48 404.98 C909.39,403.78 909.03,402.62 909.57,402.14 C910.08,401.69 913.22,399.27 916.55,396.76 C926.19,389.48 925.97,388.62 915.73,393.57 C905.35,398.58 903.16,398.69 900.30,394.34 C898.37,391.39 899.19,390.55 904.94,389.51 C908.72,388.83 925.48,381.15 924.76,380.43 C924.52,380.19 918.98,381.57 912.43,383.50 C905.89,385.42 899.49,387.00 898.22,387.00 C895.39,387.00 890.74,382.57 891.18,380.29 C891.42,379.04 896.03,377.45 909.89,373.81 C920.01,371.16 932.15,367.36 936.89,365.35 C941.63,363.35 946.51,361.78 947.75,361.85 C961.06,362.65 965.71,362.29 970.75,360.07 C973.64,358.79 976.00,357.42 976.00,357.01 C976.00,356.59 973.86,356.67 971.25,357.18 C957.44,359.86 945.25,357.92 936.82,351.69 L 932.50 348.50 L 941.00 347.89 C950.13,347.24 958.00,345.30 958.00,343.70 C958.00,343.08 955.10,342.95 950.23,343.36 C940.69,344.16 929.19,342.79 921.64,339.97 C916.16,337.92 904.81,328.89 906.08,327.60 C906.40,327.27 911.13,327.67 916.58,328.49 C925.51,329.84 943.96,330.61 942.92,329.59 C942.69,329.37 937.00,328.24 930.28,327.08 C916.86,324.77 906.61,321.36 900.60,317.20 C896.06,314.06 890.34,307.33 891.35,306.31 C891.74,305.93 895.98,306.57 900.78,307.74 C913.23,310.78 928.89,313.20 933.53,312.81 C937.06,312.51 936.68,312.33 930.00,311.14 C909.76,307.53 898.32,303.67 892.14,298.39 C887.94,294.80 884.34,289.33 885.44,288.23 C885.76,287.91 894.23,288.68 904.26,289.95 C940.01,294.46 957.98,300.97 970.02,313.74 C973.58,317.53 978.39,322.90 980.70,325.69 C983.02,328.48 987.49,332.21 990.70,334.02 C1003.47,341.22 1004.59,342.99 1001.10,350.50 C998.36,356.38 992.53,361.42 983.50,365.69 C975.94,369.28 975.68,369.50 978.81,369.81 C983.58,370.28 994.03,365.08 999.38,359.57 C1003.82,355.00 1007.00,348.10 1007.00,343.01 C1007.00,339.93 1003.32,336.13 997.50,333.22 C991.80,330.36 989.27,327.35 990.73,325.19 C991.36,324.26 993.59,320.60 995.69,317.05 C1001.72,306.86 1010.10,298.48 1016.82,295.95 C1026.40,292.33 1037.39,294.62 1045.50,301.91 C1047.15,303.40 1050.53,305.12 1053.00,305.74 C1055.47,306.35 1058.85,307.39 1060.50,308.04 L 1063.50 309.23 L 1057.00 311.47 C1038.83,317.72 1035.10,322.39 1031.02,344.00 C1027.26,363.89 1018.84,375.51 1003.58,381.86 C992.98,386.28 987.77,386.99 965.94,386.99 L 947.38 387.00 L 941.44 390.58 C938.17,392.54 933.98,395.35 932.12,396.83 C918.53,407.58 914.28,409.18 910.48,404.98 ZM 972.58 513.91 C962.97,503.53 958.00,490.55 958.00,475.83 L 958.00 467.37 L 954.25 465.61 C940.59,459.21 929.73,447.49 924.45,433.45 C921.05,424.43 921.19,423.56 926.24,422.05 C932.61,420.14 945.15,419.57 951.86,420.89 C959.07,422.31 968.75,426.15 974.16,429.73 C978.03,432.29 978.24,432.32 980.83,430.66 C986.93,426.75 995.03,423.05 1000.72,421.57 C1008.61,419.53 1020.83,419.57 1028.29,421.66 L 1034.20 423.32 L 1033.57 427.41 C1033.22,429.66 1031.37,434.82 1029.45,438.89 C1025.18,447.94 1013.55,460.02 1004.75,464.55 L 999.00 467.50 L 999.00 477.32 C999.00,488.26 996.14,499.05 991.30,506.45 C988.36,510.93 980.11,520.00 978.97,520.00 C978.56,520.00 975.68,517.26 972.58,513.91 ZM 1111.21 567.18 C1124.72,549.46 1134.71,528.88 1140.44,506.18 C1142.93,496.33 1146.00,475.66 1146.00,468.79 L 1146.00 465.00 L 1254.00 465.00 L 1254.00 511.00 L 1139.50 511.01 L 1136.12 520.75 C1130.22,537.74 1121.79,553.33 1111.21,567.18 ZM 1254.00 325.00 L 1254.00 371.00 L 1145.81 371.00 L 1146.15 317.75 C1146.47,268.93 1146.46,264.78 1144.82,261.64 C1146.41,264.66 1146.49,267.88 1146.40,294.75 L 1146.30 325.00 ZM 970.89 601.71 C969.45,600.50 967.47,598.23 966.48,596.68 L 964.68 593.86 L 972.17 586.18 C976.28,581.96 981.64,576.03 984.08,573.02 C989.97,565.72 992.56,563.44 998.48,560.34 C1003.12,557.91 1004.11,557.77 1012.98,558.27 C1023.89,558.89 1032.00,560.68 1032.00,562.46 C1032.00,565.46 1028.10,567.18 1020.07,567.73 C1010.93,568.36 1009.53,569.92 1015.75,572.57 C1020.75,574.70 1026.75,573.93 1035.34,570.07 C1039.11,568.38 1043.75,567.00 1045.66,567.00 C1048.70,567.00 1049.10,567.29 1048.82,569.25 C1048.42,572.07 1035.56,580.90 1027.40,583.95 C1022.76,585.69 1019.34,586.12 1009.62,586.19 L 997.58 586.27 L 986.73 595.14 C980.76,600.01 975.34,603.98 974.69,603.96 C974.03,603.94 972.32,602.93 970.89,601.71 ZM 974.00 308.78 C974.00,308.16 970.33,289.84 969.49,286.24 C968.96,283.99 968.89,284.01 961.64,287.99 C957.62,290.19 953.99,292.00 953.57,292.00 C953.16,292.00 954.69,288.58 956.99,284.41 C959.28,280.23 960.99,276.66 960.79,276.46 C960.60,276.27 955.28,275.12 948.97,273.91 C942.66,272.70 937.16,271.42 936.75,271.05 C936.33,270.69 941.51,269.35 948.25,268.06 C954.99,266.78 960.67,265.59 960.87,265.41 C961.07,265.24 959.38,261.72 957.12,257.60 C954.85,253.47 953.00,249.82 953.00,249.48 C953.00,249.14 956.40,250.74 960.56,253.03 C964.72,255.33 968.38,256.96 968.68,256.65 C968.99,256.34 970.08,251.91 971.11,246.80 C974.00,232.46 974.04,232.31 974.95,234.01 C975.39,234.83 976.56,240.00 977.54,245.50 C978.53,251.00 979.67,255.89 980.09,256.37 C980.50,256.84 984.25,255.35 988.42,253.05 C992.59,250.74 996.00,249.08 996.00,249.35 C996.00,249.62 994.15,253.28 991.89,257.48 C989.62,261.67 987.93,265.24 988.14,265.42 C988.34,265.59 994.01,266.78 1000.75,268.06 C1007.49,269.35 1012.67,270.69 1012.25,271.05 C1011.84,271.42 1006.34,272.70 1000.03,273.91 C993.72,275.12 988.40,276.27 988.21,276.46 C988.01,276.66 989.72,280.23 992.01,284.41 C994.31,288.58 995.84,292.00 995.43,292.00 C995.01,292.00 991.38,290.19 987.36,287.99 C980.11,284.01 980.04,283.99 979.51,286.24 C979.22,287.48 978.08,292.97 976.98,298.43 C975.30,306.71 974.00,311.24 974.00,308.78 ZM 956.15 589.24 C952.93,586.70 952.24,586.58 939.65,586.39 C924.01,586.17 918.97,584.64 907.15,576.54 C894.00,567.53 898.14,564.02 914.23,570.54 C924.15,574.56 929.55,574.83 934.52,571.58 C938.24,569.14 936.70,568.00 929.69,568.00 C923.00,568.00 916.50,565.55 916.50,563.04 C916.50,560.90 924.08,558.96 935.10,558.30 C944.55,557.73 944.80,557.78 950.94,561.05 C955.52,563.49 959.00,566.51 964.08,572.43 C967.88,576.87 970.99,580.86 971.00,581.29 C971.00,582.58 961.83,592.00 960.61,591.95 C960.00,591.93 957.99,590.71 956.15,589.24 ZM 982.03 501.75 C985.44,496.21 989.00,483.42 989.00,476.69 L 989.00 470.48 L 968.50 470.83 L 968.18 474.56 C967.73,479.82 970.74,492.44 973.73,497.89 C978.33,506.25 979.05,506.59 982.03,501.75 ZM 1011.42 446.45 C1017.14,440.64 1021.65,432.86 1020.43,430.89 C1019.50,429.39 1008.28,430.28 1000.80,432.46 C997.78,433.33 993.20,435.39 990.61,437.03 L 985.91 440.01 L 988.82 444.26 C990.42,446.59 992.70,450.41 993.89,452.76 L 996.05 457.01 L 1001.01 454.49 C1003.75,453.11 1008.43,449.49 1011.42,446.45 ZM 963.52 451.75 C964.89,448.86 966.93,445.08 968.05,443.33 L 970.09 440.17 L 966.79 437.67 C961.82,433.90 951.56,430.83 943.34,430.65 C939.39,430.57 935.88,430.79 935.52,431.15 C934.19,432.47 939.45,440.63 945.56,446.74 C950.44,451.63 958.05,456.75 960.76,456.98 C960.91,456.99 962.15,454.64 963.52,451.75 ZM 1073.00 522.34 C1073.00,521.98 1074.88,519.25 1077.18,516.27 C1081.73,510.37 1086.23,506.92 1095.50,502.23 C1098.80,500.56 1103.21,498.02 1105.29,496.59 C1107.38,495.17 1109.29,494.00 1109.54,494.00 C1111.78,494.00 1106.64,505.06 1101.89,510.48 C1096.83,516.24 1093.47,518.06 1083.21,520.60 C1082.38,520.80 1081.61,520.99 1080.90,521.17 L 1080.90 521.17 C1074.35,522.80 1073.19,523.08 1073.01,522.79 C1072.97,522.72 1072.98,522.63 1072.99,522.52 C1072.99,522.47 1073.00,522.41 1073.00,522.34 ZM 875.22 540.53 C870.36,539.01 865.61,535.73 858.75,529.14 C853.93,524.50 852.41,521.14 855.75,522.49 C856.71,522.88 861.78,524.06 867.00,525.11 C872.22,526.16 877.85,527.63 879.50,528.37 C883.06,529.98 895.00,539.78 895.00,541.09 C895.00,542.47 880.09,542.05 875.22,540.53 ZM 873.00 522.08 C872.17,521.61 869.47,520.90 867.00,520.51 C859.88,519.39 854.86,516.69 849.84,511.29 C845.12,506.21 841.00,499.34 841.00,496.54 C841.00,494.84 843.53,494.43 844.48,495.98 C844.82,496.51 849.23,499.08 854.29,501.67 C860.93,505.08 865.39,508.27 870.25,513.09 C876.59,519.38 878.62,523.04 875.75,522.97 C875.06,522.95 873.83,522.55 873.00,522.08 ZM 862.93 491.75 C861.47,488.45 860.47,483.90 860.22,479.50 C859.76,471.25 861.66,465.94 867.50,459.22 C870.60,455.64 871.46,455.14 872.71,456.18 C873.93,457.18 874.12,459.33 873.73,467.46 C873.33,475.68 872.68,478.86 870.16,485.00 C868.46,489.12 867.05,493.51 867.03,494.75 C866.98,498.47 865.38,497.31 862.93,491.75 ZM 1084.00 495.10 C1084.00,494.06 1082.43,489.12 1080.50,484.14 C1077.44,476.23 1077.00,473.96 1077.02,466.29 C1077.02,461.45 1077.45,456.83 1077.97,456.02 C1079.38,453.79 1084.41,459.06 1088.17,466.70 C1090.87,472.17 1091.18,473.69 1090.77,479.21 C1090.52,482.67 1089.31,488.09 1088.08,491.25 C1085.87,496.97 1084.00,498.73 1084.00,495.10 ZM 855.21 497.56 C845.38,491.45 842.26,488.30 838.48,480.65 C834.39,472.38 832.83,465.00 835.17,465.00 C835.95,465.00 840.69,469.06 845.70,474.03 C852.58,480.84 855.81,484.98 858.90,490.93 C864.84,502.34 864.34,503.23 855.21,497.56 ZM 1060.30 536.56 C1067.78,529.38 1071.53,527.54 1083.80,525.04 C1089.34,523.91 1094.57,522.72 1095.43,522.39 C1101.82,519.94 1087.10,534.82 1079.42,538.58 C1075.22,540.64 1072.20,541.25 1064.34,541.64 L 1054.50 542.14 ZM 1088.00 499.40 C1088.00,498.51 1089.68,494.58 1091.73,490.65 C1094.44,485.47 1098.04,480.95 1104.82,474.25 C1109.96,469.16 1114.86,465.00 1115.71,465.00 C1119.73,465.00 1113.60,481.23 1106.78,488.62 C1103.54,492.14 1090.51,501.00 1088.58,501.00 C1088.26,501.00 1088.00,500.28 1088.00,499.40 ZM 1043.50 558.28 C1039.65,558.10 1035.88,557.73 1035.11,557.46 C1032.95,556.68 1036.11,553.75 1043.19,549.98 C1048.96,546.90 1049.96,546.71 1062.64,546.23 C1074.02,545.79 1076.00,545.94 1076.00,547.20 C1076.00,549.25 1073.61,551.20 1065.92,555.40 C1060.82,558.19 1058.34,558.96 1054.92,558.80 C1052.49,558.70 1047.35,558.46 1043.50,558.28 ZM 1092.49 467.95 C1092.12,466.27 1089.65,461.66 1087.01,457.70 C1081.57,449.55 1080.24,445.48 1079.81,435.53 C1079.56,429.88 1079.79,428.51 1081.05,428.25 C1082.10,428.03 1083.55,429.93 1085.55,434.13 C1087.17,437.54 1089.80,441.94 1091.38,443.91 C1097.71,451.79 1099.57,460.31 1096.55,467.53 C1094.76,471.81 1093.37,471.95 1092.49,467.95 ZM 1049.39 540.18 C1049.66,539.74 1050.84,533.82 1051.99,527.03 C1054.19,514.14 1055.63,509.66 1059.30,504.26 C1064.19,497.05 1066.77,501.91 1065.66,516.26 C1064.93,525.71 1062.46,530.66 1055.38,536.90 C1051.17,540.60 1048.08,542.29 1049.39,540.18 ZM 854.69 468.48 C851.24,461.24 852.85,453.06 859.50,444.00 C861.44,441.36 864.13,436.69 865.50,433.60 C867.06,430.07 868.58,428.00 869.62,428.00 C871.07,428.00 871.21,429.13 870.79,437.26 C870.27,447.10 869.25,450.01 863.50,458.00 C861.72,460.48 859.66,464.30 858.93,466.50 C857.01,472.23 856.58,472.44 854.69,468.48 ZM 885.13 555.59 C877.76,551.54 875.00,549.27 875.00,547.26 C875.00,546.07 877.18,545.95 888.75,546.55 C903.33,547.30 903.84,547.43 911.25,552.35 C917.22,556.32 917.37,558.00 911.75,558.01 C909.41,558.01 903.90,558.26 899.50,558.56 C891.77,559.08 891.29,558.98 885.13,555.59 ZM 893.65 534.92 C886.37,527.46 884.99,523.68 885.02,511.31 C885.03,502.42 885.98,499.92 888.72,501.58 C891.64,503.35 896.00,512.47 897.41,519.72 C900.57,535.98 901.20,540.14 900.60,540.74 C900.24,541.09 897.12,538.47 893.65,534.92 ZM 1099.48 467.75 C1100.73,459.67 1102.96,453.48 1106.97,447.00 C1109.18,443.42 1111.99,438.36 1113.20,435.73 C1114.42,433.11 1115.87,431.12 1116.44,431.31 C1117.94,431.81 1119.18,439.75 1118.61,445.18 C1118.33,447.76 1117.12,451.81 1115.91,454.18 C1113.69,458.52 1101.47,472.00 1099.75,472.00 C1099.22,472.00 1099.11,470.16 1099.48,467.75 ZM 843.32 464.75 C839.46,460.76 835.51,455.96 834.54,454.09 C831.35,447.90 831.52,432.33 834.78,431.24 C835.45,431.02 836.00,431.45 836.00,432.21 C836.00,432.97 838.68,438.07 841.96,443.55 C847.41,452.63 849.27,457.55 851.51,468.75 C851.87,470.54 851.75,472.00 851.25,472.00 C850.75,472.00 847.18,468.74 843.32,464.75 ZM 1028.17 546.75 C1029.79,542.76 1032.20,537.64 1033.53,535.37 C1036.54,530.22 1046.11,520.00 1047.93,520.00 C1050.04,520.00 1048.61,529.98 1045.53,536.71 C1041.80,544.87 1038.57,548.68 1032.97,551.51 C1025.20,555.45 1024.79,555.05 1028.17,546.75 ZM 876.28 515.70 C873.97,513.18 871.77,509.94 871.41,508.49 C869.55,501.08 873.68,479.50 876.96,479.50 C880.79,479.50 883.36,501.71 881.18,515.89 L 880.50 520.28 ZM 919.45 552.62 C913.58,549.90 908.58,544.52 905.42,537.55 C902.79,531.73 900.95,522.70 902.04,520.93 C902.96,519.44 911.89,527.53 916.14,533.70 C918.97,537.82 925.61,553.73 924.82,554.52 C924.60,554.74 922.18,553.88 919.45,552.62 ZM 1069.71 519.33 C1069.43,518.87 1069.17,512.20 1069.14,504.50 C1069.09,493.80 1069.49,489.20 1070.82,485.00 C1073.27,477.29 1075.00,477.79 1077.69,487.00 C1080.43,496.40 1080.59,505.14 1078.10,510.50 C1076.10,514.83 1070.54,520.68 1069.71,519.33 ZM 851.00 443.05 C851.00,436.19 854.23,416.27 855.98,412.30 C858.28,407.11 861.60,406.33 862.56,410.75 C862.90,412.26 863.35,414.09 863.57,414.80 C864.34,417.28 862.06,429.62 859.91,434.55 C857.50,440.09 853.39,446.00 851.95,446.00 C851.43,446.00 851.00,444.67 851.00,443.05 ZM 1095.83 443.21 C1092.43,439.17 1088.37,428.78 1087.51,421.94 C1086.00,409.82 1091.03,403.29 1094.99,412.25 C1097.13,417.10 1100.23,441.20 1099.11,444.24 C1098.42,446.11 1098.21,446.04 1095.83,443.21 ZM 845.24 440.75 C840.88,433.39 839.60,427.26 841.01,420.46 C842.30,414.22 847.29,406.71 849.80,407.21 C851.94,407.64 851.88,410.83 849.53,421.47 C848.35,426.78 847.92,431.85 848.23,436.72 C848.49,440.72 848.35,444.00 847.93,444.00 C847.51,444.00 846.30,442.54 845.24,440.75 ZM 1102.62 437.75 C1103.16,431.71 1102.61,426.98 1099.96,414.70 C1097.80,404.72 1101.96,404.08 1107.23,413.58 C1111.23,420.79 1111.12,429.45 1106.92,437.84 C1105.23,441.23 1103.45,444.00 1102.96,444.00 C1102.47,444.00 1102.32,441.19 1102.62,437.75 ZM 984.99 459.25 C984.99,458.84 983.61,456.11 981.93,453.18 C978.39,447.00 977.44,447.22 973.41,455.19 L 970.97 460.00 L 977.98 460.00 C981.84,460.00 985.00,459.66 984.99,459.25 ZM 1034.50 307.50 C1034.50,304.84 1034.17,304.50 1031.51,304.50 C1029.43,304.50 1028.42,305.05 1028.18,306.30 C1027.70,308.80 1029.92,311.16 1032.41,310.80 C1034.00,310.57 1034.50,309.78 1034.50,307.50 ZM 825.54 544.60 C838.89,569.55 858.33,590.68 881.59,605.97 C861.00,592.68 844.08,575.12 830.02,552.70 C828.76,550.68 827.20,547.84 825.54,544.60 ZM 941.81 630.74 C949.98,632.29 958.03,632.44 975.00,632.46 C953.39,632.43 948.52,632.25 941.81,630.74 Z" fill="rgb(209,170,60)"/>
<path d="M 371.00 650.50 L 371.00 465.00 L 185.50 465.00 L 0.00 465.00 L 0.00 418.00 L 0.00 371.00 L 185.50 371.00 L 371.00 371.00 L 371.00 185.50 L 371.00 0.00 L 418.00 0.00 L 465.00 0.00 L 465.00 185.50 L 465.00 371.00 L 635.11 371.00 L 805.23 371.00 L 804.86 317.75 C804.51,265.96 804.55,264.41 806.50,261.10 C808.40,257.86 811.27,256.59 864.00,235.52 C894.53,223.33 930.75,208.67 944.50,202.96 C976.83,189.53 975.05,189.61 1001.00,200.44 C1023.87,209.98 1075.25,230.80 1100.00,240.56 C1142.49,257.31 1142.24,257.20 1144.46,261.00 C1146.46,264.43 1146.49,265.63 1146.15,317.75 L 1145.81 371.00 L 1199.90 371.00 L 1254.00 371.00 L 1254.00 418.00 L 1254.00 465.00 L 1200.00 465.00 L 1146.00 465.00 L 1146.00 468.79 C1146.00,475.66 1142.93,496.33 1140.44,506.18 C1124.64,568.80 1076.34,615.26 1011.50,630.20 C1002.37,632.30 999.18,632.50 975.00,632.46 C945.99,632.42 943.05,632.01 921.00,624.89 C877.75,610.94 841.38,578.74 821.72,537.00 C812.42,517.24 806.70,495.59 805.35,474.96 L 804.70 465.00 L 634.85 465.00 L 465.00 465.00 L 465.00 650.50 L 465.00 836.00 L 418.00 836.00 L 371.00 836.00 L 371.00 650.50 ZM 1006.00 622.09 C1056.03,612.05 1097.70,580.38 1119.91,535.50 C1131.39,512.29 1135.71,495.18 1137.05,467.50 C1138.33,441.35 1138.26,266.28 1136.98,265.49 C1136.41,265.14 1099.85,250.26 1055.73,232.43 L 975.50 200.00 L 894.26 232.75 L 813.03 265.50 L 813.01 363.60 C813.00,465.27 813.45,479.89 817.13,496.88 C831.90,565.03 888.11,615.96 957.50,624.06 C968.50,625.34 995.17,624.26 1006.00,622.09 Z" fill="rgb(254,254,253)"/>
</g>
</svg>